<svg xmlns="http://www.w3.org/2000/svg" viewBox="0 0 250 45.884089" height="45.884" width="250"><g transform="matrix(.33783 0 0 .33783 .88028 1.1197)"><path fill="#154734" d="m132.3 0v129.8h3.0996v-129.8h-3.0996zm161.4 31.4c-2.1 0-3.7992 2.8004-10.699 4.4004-0.4 0.1-0.80078 0.5-0.80078 1 0 1.9 6.1016-0.40156 6.1016 4.8984v50.201c0 3.8-4.4004 3.6004-4.4004 4.9004 0 0.8 0.39961 1.1992 1.0996 1.1992 0.8 0 2.5004-0.40039 6.9004-0.40039 4.2 0 6.9992 0.40039 8.1992 0.40039 1.3 0 2-0.09922 2-1.1992 0-2.4-7.4004 0.1-7.4004-6h0.10156v-58c0-0.9-0.60156-1.4004-1.1016-1.4004zm107.61 3.4863c-0.28125 0.0016-0.50742 0.01367-0.60742 0.01367-2.8 0-5.7 0.40039-8.5 0.40039-2.4 0-4.5984-0.40039-6.8984-0.40039-0.5 0-2 0.30039-2 0.90039 0 2.9 7.1992 0.8 7.1992 6v30c0 13.7 4.5004 26.799 27.9 26.799 25.9 0 24.799-21.899 24.799-26.299v-27.602c0-8.2 5.2012-6.1992 5.2012-8.6992 0-0.6-0.80117-1-1.2012-1-1.6 0-3.1984 0.40039-4.8984 0.40039-3.5 0-6.9004-0.40039-10.4-0.40039-0.3 0-0.90039 0.50039-0.90039 0.90039 0 3.4 8.3008-0.40078 8.3008 8.6992v28.9c0 10.5-3.9016 21.5-20.602 21.5-12 0-21.299-6.4992-21.299-20.699h0.0996v-32.102c0-6.4 6-3.8984 6-6.3984 0-0.825-1.3496-0.91875-2.1934-0.91406zm-238.71 0.114c-1.1 0-2.4004-0.10078-2.4004 1.1992 0 1.8 7.9004 0.90117 7.9004 7.7012v43.799c0 6.9-3.0996 7.3016-4.0996 7.6016-1.6 0.5-2.6992 0.79922-2.6992 1.6992 0 0.8 1.7992 1 2.1992 1 4.1 0 8.3004-0.40039 12.4-0.40039 3.1 0 8.3996 0.40039 11.6 0.40039 17.3 0 21.6-13 21.6-18.9 0-14.8-14-15.1-14-16.4 0-0.6 8.4004-3.4996 8.4004-12.6 0-6.6-3.9-15.1-19.6-15.1-7.1 0-10.601 0.40039-14.201 0.40039-3.5 0-5.2996-0.40039-7.0996-0.40039zm17.6 3c9 0 17.102 5.4 17.102 15 0 4.2-0.70078 9.5996-15.301 9.5996-8 0-6.9004-0.49883-6.9004-3.2988h-0.0996v-14.602c0-5.2-0.4-6.699 5.2-6.699zm325.1 3.1992c-1 0-3.7012 3.7012-3.7012 4.7012s2.6012 4.5996 3.7012 4.5996 3.6992-3.4996 3.6992-4.5996-2.5992-4.7012-3.6992-4.7012zm153.5 0c-1 0-3.7012 3.7012-3.7012 4.7012s2.6012 4.5996 3.7012 4.5996 3.6992-3.4996 3.6992-4.5996-2.5992-4.7012-3.6992-4.7012zm21.5 11.201c-0.7 0-1.6004 1.9996-3.4004 4.0996-4.6 5-6.8008 6.4992-6.8008 7.1992 0 0.6 0.60078 0.60156 4.8008 0.60156h0.0996v24.1c0 9.1 5.9 10.299 10 10.299 6.2 0 11-3.0984 11-4.3984 0-0.7-0.29922-0.80078-0.69922-0.80078-1.6 0-2.9016 2-7.6016 2-3.5 0-5.9992-1.7008-6.1992-5.3008v-25.898h11.6l1.8008-3.2012c0.2-0.4 0.5-0.79922 0.5-1.1992 0-0.3-0.19961-0.70117-0.59961-0.70117-0.3 0-1.3 1.5-3.5 1.5h-9.8008c0-6.4 0.00078-8.2988-1.1992-8.2988zm-325.9 6.4004c-2.1 0-3.8012 2.7984-10.701 4.3984-0.5 0.1-1.1992 0.5-1.1992 1 0 1.9 6.4004-0.39961 6.4004 4.9004v23c0 3.7-4.5 3.3012-4.5 5.2012 0 0.5 0.3 0.79883 1 0.79883 0.6 0 2.1992-0.40039 8.1992-0.40039 5 0 7.2004 0.40039 8.4004 0.40039 1 0 1.4004-0.2 1.4004-1 0-2.9-7.9004 1.3996-7.9004-6.9004v-19.398c0-1.2 2.2008-5.3008 5.8008-5.3008 3.2 0 4.1984 2 5.8984 2 1.1 0 3.2012-2.7 3.2012-4 0-1.7-4.0004-4-5.9004-4-3.7 0-6.9008 4.8004-8.8008 7.4004h-0.19922v-6.7012c0-0.9-0.59961-1.3984-1.0996-1.3984zm105.5 0c-2 0-3.8012 2.7984-11.201 4.3984-0.4 0.1-0.79883 0.5-0.79883 1 0 1.9 6.5996-0.39961 6.5996 4.9004v22c0 5.8-5.3008 4.0008-5.3008 5.8008 0 0.9 0.40156 1.0996 1.6016 1.0996 1.1 0 2.8996-0.40039 7.5996-0.40039 5.2 0 7 0.40039 8.5 0.40039 1.4 0 2-0.09922 2-1.1992 0-2.4-7.8008 0.1-7.8008-6h-0.0996v-20.5c-0.1-1.4 3-6.9004 10.5-6.9004 7.2 0 10.4 6.6996 10.4 11.1v16.6c0 5.8-3.8008 4.0008-3.8008 5.8008 0 0.9 0.39961 1.0996 1.5996 1.0996 1.1 0 3.0004-0.40039 6.4004-0.40039 4.3 0 6.5012 0.40039 7.7012 0.40039 0.9 0 1.5-0.09922 1.5-1.1992 0-2.4-6.9004 0.1-6.9004-6v-14.701c0-6.7-2.6-16.6-14.5-16.6-8.6 0-13.1 7.6996-12.9 6.5996v-5.9004c0-0.9-0.59961-1.3984-1.0996-1.3984zm47.6 0c-2 0-3.8 2.7984-9.5 4.3984-0.4 0.1-0.80078 0.5-0.80078 1 0 1.9 4.9004-0.39961 4.9004 4.9004v21c0 8.1-3.9004 4.7004-3.9004 6.9004 0.1 0.9 0.60078 1 1.3008 1 0.9 0 3.1996-0.40039 6.0996-0.40039 3.7 0 6.4008 0.40039 8.3008 0.40039 1.2 0 1.6992-0.3 1.6992-1 0-2.3-7-0.40039-7-4.9004v-31.9c0-0.9-0.59961-1.3984-1.0996-1.3984zm94.6 0c-2.1 0-3.7992 2.7984-10.699 4.3984-0.5 0.1-1.2012 0.5-1.2012 1 0 1.9 6.4004-0.39961 6.4004 4.9004v23c0 3.7-4.5 3.3012-4.5 5.2012 0 0.5 0.3 0.79883 1 0.79883 0.6 0 2.2012-0.40039 8.2012-0.40039 5 0 7.1984 0.40039 8.3984 0.40039 1 0 1.4004-0.2 1.4004-1 0-2.9-7.9004 1.3996-7.9004-6.9004v-19.398c0-1.2 2.2-5.301 5.8-5.301 3.2 0 4.2004 2 5.9004 2 1.1 0 3.1992-2.7 3.1992-4 0-1.7-4.0004-4-5.9004-4-3.7 0-6.8988 4.8004-8.7988 7.4004h-0.20117v-6.7012c0-0.9-0.59961-1.3984-1.0996-1.3984zm58.9 0c-2 0-3.8 2.7984-9.5 4.3984-0.4 0.1-0.80078 0.5-0.80078 1 0 1.9 4.9004-0.39961 4.9004 4.9004v21c0 8.1-3.9004 4.7004-3.9004 6.9004 0 0.9 0.60078 1 1.3008 1 0.9 0 3.2996-0.40039 6.0996-0.40039 3.7 0 6.4008 0.40039 8.3008 0.40039 1.2 0 1.6992-0.3 1.6992-1 0-2.3-7-0.40039-7-4.9004v-31.9c0-0.9-0.59961-1.3984-1.0996-1.3984zm-432.5 0.59961c-9.8-0.2-14.8 6-14.9 10.1 0 1.6 2.7012 2.9004 4.2012 2.9004 1.7 0 2-0.70117 2-1.7012 0-0.9-0.5-2.2996-0.5-3.5996 0-4.9 3.3992-5.2988 7.6992-5.2988 5.6 0 9.1992 3.0992 9.1992 7.6992h-0.0996v6.8008c-20.8 3.5-22.299 9.0988-22.299 13.799 0 6.4 3.7996 8.5 9.5996 8.5 5 0 9.8996-1.9992 13.6-5.1992 1.1 2.9 3.4004 4.5 6.9004 4.5 1.3 0 5.1992-0.30117 5.1992-2.2012 0-0.6-0.79922-0.59961-1.1992-0.59961-0.3 0-1.1 0.20117-1.5 0.20117-4.6 0-3.8008-5.3008-3.8008-8.3008v-18.4c0-7.6-8.5996-9.1992-14.1-9.1992zm93.8 0.1c-11.2 0-19.801 9.4008-19.801 20.301 0 12 8.3004 18.799 19.9 18.799 10.9 0 19.199-8.3988 19.199-19.299 0-16.5-12.499-19.801-19.299-19.801zm311.8 0c-6.5 0-12 3.5992-12 10.699 0 6.3 6.0012 8.6 10.701 11 3.6 1.7 8.0996 3.1008 8.0996 7.8008 0 4.6-3.5004 7.3008-7.9004 7.3008-9.6 0-8.5996-11.701-10.6-11.701-1.4 0-1.0996 2.9004-1.0996 4.4004 0 7 0 7.0996 2 7.0996 2.2 0 3.8 2.5996 10 2.5996 6.6 0 12-5.4992 12-12.199 0-5.7-2.3004-8.4996-7.4004-10.6-9.4-3.7-11.701-5.6-11.701-8.5 0-3.7 2.7012-5.7012 6.2012-5.7012 8.1 0 8.8988 7.7012 9.7988 7.7012 1.4 0 1-1.1 1-3.5 0-0.7 0.10156-3.7004-0.39844-4.4004-1.1-1.3-7.2012-2-8.7012-2zm-61.199 0.09961c-11.1 0-17.4 9.5-17.4 20.9 0 5.8 4.7 18.199 18 18.199 8 0 15.699-6.5 15.699-8.5 0-0.2 0.002-0.59961-0.39844-0.59961-1.9 0-4.9 4.5996-12.5 4.5996-5.3873 0-14.257-4.2819-14.299-18.898h23.697c2 0 3 0.1 3-1.5 0-3.6-4.8988-14.201-15.799-14.201zm-56.5 0.80078c-1.8 0-1.9004 0.49961-1.9004 1.0996 0 1.6 3.2004 0.30078 4.9004 4.3008l13.4 30.699c0.3 0.6 0.59883 2.0996 1.7988 2.0996 1.3 0 1.3-1.0992 3-4.6992l13.6-28.801c1.2-2.7 4.4004-2.0988 4.4004-3.2988s-1.5004-1.3008-2.4004-1.3008c-1.5 0-3.0996 0.40039-4.5996 0.40039-1.9 0-3.6-0.40039-5.5-0.40039-1.1 0-2.0996 0.09922-2.0996 1.1992 0 2.2 5.5-0.29883 5.5 4.7012 0 4-2.2004 7.6988-3.9004 11.299l-6 12.801-8.6992-21.4c-1.1-2.7-1.5-4.1004-1.5-4.4004 0-2.7 5.0996-1.4988 5.0996-3.2988 0-1-0.8-1-2-1-1.1 0-2.2 0.40039-5.5 0.40039-5.9 0-5.8996-0.40039-7.5996-0.40039zm-269.1 0.099c-1.3 0-1.8008 0.19961-1.8008 1.0996 0 1.3 3.3992 1.3008 4.1992 3.3008l11.701 28.699c0.8 1.9 1.7988 3.9 1.7988 6 0 7-8.0996 13.6-8.0996 15.6 0 0.7 2.1008 0.60156 3.3008 0.60156s2.8004-0.00078 2.9004-0.30078l16.898-48.6c1.8-5.4 4.8008-3.2012 4.8008-5.2012 0-0.7-0.59922-1.0996-1.6992-1.0996-0.9 0-2.5 0.40039-4.5 0.40039-2.5 0-3.9-0.40039-5-0.40039-1.6 0-2.7012 0.1-2.7012 1 0 1.9 5.7012 0.60039 5.7012 5.4004 0 0.6-0.002 1.3996-1.1016 4.5996l-6.8984 20.1-9.5-24.199 0.11524-0.11523c-0.17854-0.2859-0.51563-1.1547-0.51563-2.084 0-3.5 5.0996-1.7016 5.0996-3.6016 0-1-0.60039-1.1992-1.9004-1.1992-1.4 0-3.4996 0.40039-6.5996 0.40039-2.4 0-4.2992-0.40039-6.1992-0.40039zm10.115 6.8848c0.0904 0.14483 0.15123 0.18501 0.084-0.08398l-0.084 0.08398zm441.08-6.885c-1.3 0-1.8008 0.19961-1.8008 1.0996 0 1.3 3.4012 1.3008 4.2012 3.3008l11.699 28.699c0.8 1.9 1.8008 3.9 1.8008 6 0 7-8.0996 13.6-8.0996 15.6 0 0.7 2.0988 0.60156 3.2988 0.60156s2.8004-0.00078 2.9004-0.30078l16.801-48.6c1.8-5.4 4.7988-3.2012 4.7988-5.2012 0-0.7-0.59922-1.0996-1.6992-1.0996-0.9 0-2.5 0.40039-4.5 0.40039-2.5 0-3.9-0.40039-5-0.40039-1.6 0-2.7012 0.1-2.7012 1 0 1.9 5.7012 0.60039 5.7012 5.4004 0 0.6 0.00039 1.3996-1.0996 4.5996l-6.8 20.1-9.5-24.199 0.11523-0.11523c-0.17862-0.28642-0.51562-1.1552-0.51562-2.084 0-3.5 5.0996-1.7016 5.0996-3.6016 0-1-0.59844-1.1992-1.8984-1.1992-1.4 0-3.5016 0.40039-6.6016 0.40039-2.4-0.001-4.3-0.401-6.2-0.401zm10.115 6.8848c0.0906 0.14531 0.15131 0.18528 0.084-0.08398l-0.084 0.08398zm-387.62-5.885c10.6 0 14.4 9.9992 14.4 19.199 0 11-4.7012 16.102-12.201 16.102-10.4 0-14.5-11.402-14.5-20.102 0-7.5 3.6-15.199 12.3-15.199zm250.4 0.09961c4.9 0 9.9004 4.4004 9.9004 9.4004 0 1.4-0.60078 1.8008-1.8008 1.8008h-17.5c0-4.9 3.9004-11.201 9.4004-11.201zm-389.9 3.701c20.4 0 20.801 11.4 20.801 17.1 0 5.4-3.2 13.199-15 13.199-12.6 0-12.201-1.8988-12.201-8.2988v-20c0-0.8-0.49961-2 6.4004-2zm54.7 13.199h0.10156v10.301c0 4.7-6.1 7.199-9.3 7.199-4.7 0-7.3008-1.9-7.3008-7 0-7.8 10.8-9.3 16.5-10.5z"/><path fill="#ffb81c" d="m0 0v14.6h6.9004v58.6h-6.9004v14.602h33.1v21.898c0 4.5 0.000391 7.4004 3.4004 10.9l5.6992 5.8008c3.4 3.5 6.2004 3.5 10.4 3.5h27.701c4.2 0 6.9984 0 10.398-3.5l5.7012-5.8008c3.4-3.5 3.4004-6.4004 3.4004-10.9v-39.299l-7.1016-3.3008h13.201v-14.5h-26.4v14.6h6v42.5c0 1.1-0.09961 1.5-0.59961 2l-2.9004 3c-0.5 0.5-0.90039 0.60156-1.9004 0.60156h-27.199c-1.1 0-1.5004-0.10156-1.9004-0.60156l-2.9004-3c-0.5-0.5-0.59961-0.9-0.59961-2v-22h6.5c4.4 0 7.2992 0 10.699-3.5l5.7012-5.7988c3.4-3.5 3.4004-6.4012 3.4004-10.701v-15.799c0-4.4-0.00039-7.2012-3.4004-10.701l-2-2 2-2c3.4-3.5 3.4004-6.3992 3.4004-10.699v-6.5c0-4.4-0.00039-7.1992-3.4004-10.699l-5.7-5.802c-3.5-3.5-6.399-3.5-10.799-3.5h-53.9zm14 14.6h39.9c1.1 0 1.5004 0.09961 1.9004 0.59961l2.8984 3c0.5 0.5 0.60156 0.9 0.60156 2v6.2012c0 1.1-0.10156 1.5-0.60156 2l-2.8984 3c-0.5 0.5-0.90039 0.59961-1.9004 0.59961h-32.701v-14.1l-7.199-3.301zm7.199 31.9h32.701c1.1 0 1.5004 0.09961 1.9004 0.59961l2.8984 3c0.5 0.5 0.60156 0.9 0.60156 2v15.5c0 1.1-0.10156 1.5-0.60156 2l-2.8984 3c-0.5 0.5-0.80078 0.59961-1.8008 0.59961h-32.801v-26.699zm5.9004 6.0996v14.5h6v3.8008h14.301v-3.8008h6.0996v-14.5h-26.4z"/></g></svg>
